# xmcd
# 
# Track frame offsets:
#     150
#     43248
#     61168
#     80125
#     92153
#     113530
#     133465
#     147350
#     171483
#     188310
#     214223
#     227473
#     275653
#     311195
# 
# Disc length: 4485
# 
# Revision: 15
# Processed by: cddbd v1.5.2PL0 Copyright (c) Steve Scherf et al.
# Submitted via: fre:ac v1.0.31
# 
DISCID=d211830e
DTITLE=Various Artist - The Best Of Blue Note
DYEAR=1994
DGENRE=Jazz
TTITLE0=Art Blakey - Moanin'
TTITLE1=Kenny Burrell - Midnight Blue
TTITLE2=Duke Ellington - Caravan
TTITLE3=Count Basie - The Kid From Red Bank
TTITLE4=Bud Powell - Un Poco Loco
TTITLE5=Charlie Parker - Ornithology
TTITLE6=Miles Davis - Rocker
TTITLE7=Dexter Gordon - I Guess I'll Hang My Tears Out To Dry
TTITLE8=Chet Baker - Let's Get Lost
TTITLE9=Sonny Rollins - Tune Up
TTITLE10=Thelonious Monk - Criss Cross
TTITLE11=John Coltrane - Blue Train
TTITLE12=Herbie Hancock - Maiden Voyage
TTITLE13=Horace Silver - Que Pasa (Trio Version)
EXTD=YEAR: 1994
EXTT0=
EXTT1=
EXTT2=
EXTT3=
EXTT4=
EXTT5=
EXTT6=
EXTT7=
EXTT8=
EXTT9=
EXTT10=
EXTT11=
EXTT12=
EXTT13=
PLAYORDER=
